<?xml version="1.0" encoding="iso-8859-1"?>
<!-- Generator: Adobe Illustrator 16.0.4, SVG Export Plug-In . SVG Version: 6.00 Build 0)  -->
<!DOCTYPE svg PUBLIC "-//W3C//DTD SVG 1.1//EN" "http://www.w3.org/Graphics/SVG/1.1/DTD/svg11.dtd">
<svg version="1.1" id="Capa_1" xmlns="http://www.w3.org/2000/svg" xmlns:xlink="http://www.w3.org/1999/xlink" x="0px" y="0px"
	 width="63.896px" height="68.28px" viewBox="0 0 63.896 68.28" style="enable-background:new 0 0 63.896 68.28;"
	 xml:space="preserve">
<g id="_x33_5">
	<g>
		<path d="M31.948,48.964c-13.152,0-27.127,3.385-27.127,9.659c0,6.271,13.975,9.657,27.127,9.657s27.127-3.386,27.127-9.657
			C59.075,52.349,45.101,48.964,31.948,48.964z M31.948,51.613c1.428,0,2.785,0.047,4.106,0.114c-0.025,0.1-0.061,0.195-0.061,0.302
			c0,2.729-2.218,4.949-4.941,4.949s-4.941-2.221-4.941-4.949c0-0.069-0.028-0.128-0.039-0.194
			C27.919,51.695,29.873,51.613,31.948,51.613z M31.948,65.631c-15.168,0-24.482-4.082-24.482-7.008
			c0-2.346,5.998-5.431,16.189-6.564c0.016,4.072,3.327,7.382,7.397,7.382c4.08,0,7.399-3.325,7.399-7.411
			c0-0.051-0.022-0.094-0.028-0.143c11.288,0.95,18.007,4.255,18.007,6.736C56.431,61.549,47.116,65.631,31.948,65.631z
			 M63.625,54.615l-8.063-10.041c-2.465-3.065-3.499-7.051-2.842-10.931l0.237-1.404c0.946-5.582-0.604-11.263-4.252-15.587
			c-2.766-3.281-6.503-5.497-10.613-6.378V6.106C38.092,2.738,35.358,0,31.9,0c-3.362,0-6.097,2.738-6.097,6.106v4.168
			c-4.11,0.881-7.847,3.097-10.612,6.378c-3.647,4.324-5.198,10.005-4.253,15.587l0.238,1.404c0.657,3.88-0.377,7.865-2.842,10.931
			L0.271,54.615c-0.425,0.529-0.341,1.306,0.188,1.731c0.53,0.423,1.301,0.344,1.728-0.188l8.064-10.041
			c2.903-3.616,4.125-8.313,3.351-12.889l-0.238-1.403c-0.823-4.863,0.526-9.818,3.706-13.587c3.18-3.77,7.826-5.931,12.754-5.931
			h4.252c4.928,0,9.573,2.161,12.754,5.931c3.18,3.769,4.528,8.724,3.705,13.587l-0.237,1.403
			c-0.775,4.575,0.446,9.272,3.351,12.889l8.063,10.041c0.243,0.303,0.601,0.459,0.958,0.459c0.271,0,0.542-0.089,0.771-0.271
			C63.966,55.921,64.05,55.145,63.625,54.615z M35.635,9.847h-7.373v-3.74c0-2.01,1.632-3.645,3.734-3.645
			c2.006,0,3.639,1.635,3.639,3.645V9.847z"/>
	</g>
</g>
<g>
</g>
<g>
</g>
<g>
</g>
<g>
</g>
<g>
</g>
<g>
</g>
<g>
</g>
<g>
</g>
<g>
</g>
<g>
</g>
<g>
</g>
<g>
</g>
<g>
</g>
<g>
</g>
<g>
</g>
</svg>
