<?xml version="1.0" encoding="iso-8859-1"?>
<!-- Generator: Adobe Illustrator 16.0.4, SVG Export Plug-In . SVG Version: 6.00 Build 0)  -->
<!DOCTYPE svg PUBLIC "-//W3C//DTD SVG 1.1//EN" "http://www.w3.org/Graphics/SVG/1.1/DTD/svg11.dtd">
<svg version="1.1" id="Capa_1" xmlns="http://www.w3.org/2000/svg" xmlns:xlink="http://www.w3.org/1999/xlink" x="0px" y="0px"
	 width="31.949px" height="72.004px" viewBox="0 0 31.949 72.004" style="enable-background:new 0 0 31.949 72.004;"
	 xml:space="preserve">
<g id="_x32_">
	<g>
		<path d="M30.72,17.231H1.229C0.55,17.231,0,17.782,0,18.463v34.463c0,0.423,0.218,0.816,0.574,1.042
			c0.356,0.225,0.806,0.253,1.186,0.067l14.215-6.822l14.215,6.822c0.168,0.082,0.35,0.121,0.53,0.121
			c0.229,0,0.456-0.063,0.655-0.188c0.356-0.226,0.574-0.619,0.574-1.042V18.463C31.949,17.782,31.399,17.231,30.72,17.231z
			 M29.491,50.972l-12.986-6.232c-0.167-0.081-0.349-0.121-0.53-0.121c-0.181,0-0.363,0.04-0.53,0.121L2.458,50.972V19.693h12.288
			v19.693c0,0.681,0.55,1.23,1.229,1.23c0.68,0,1.229-0.55,1.229-1.23V19.693h12.288V50.972z M29.922,57.221l-7.927,6.782H9.831
			c-0.064,0-0.119,0.027-0.181,0.037l-7.646-6.223c-0.525-0.428-1.301-0.346-1.729,0.18c-0.428,0.527-0.349,1.303,0.179,1.731
			l14.745,12.001c0.228,0.184,0.501,0.275,0.775,0.275c0.284,0,0.568-0.099,0.798-0.295l14.746-12.615
			c0.516-0.442,0.577-1.219,0.137-1.736C31.211,56.84,30.438,56.78,29.922,57.221z M15.955,69.171l-3.325-2.706h6.487L15.955,69.171
			z M22.579,0H9.37C4.204,0,0,4.211,0,9.385v4.154c0,0.681,0.55,1.231,1.229,1.231h29.49c0.68,0,1.229-0.551,1.229-1.231V9.385
			C31.949,4.211,27.745,0,22.579,0z M29.491,12.309H2.458V9.385c0-3.817,3.101-6.923,6.912-6.923h13.209
			c3.812,0,6.912,3.105,6.912,6.923V12.309z"/>
	</g>
</g>
<g>
</g>
<g>
</g>
<g>
</g>
<g>
</g>
<g>
</g>
<g>
</g>
<g>
</g>
<g>
</g>
<g>
</g>
<g>
</g>
<g>
</g>
<g>
</g>
<g>
</g>
<g>
</g>
<g>
</g>
</svg>
