<?xml version="1.0" encoding="iso-8859-1"?>
<!-- Generator: Adobe Illustrator 16.0.4, SVG Export Plug-In . SVG Version: 6.00 Build 0)  -->
<!DOCTYPE svg PUBLIC "-//W3C//DTD SVG 1.1//EN" "http://www.w3.org/Graphics/SVG/1.1/DTD/svg11.dtd">
<svg version="1.1" id="Capa_1" xmlns="http://www.w3.org/2000/svg" xmlns:xlink="http://www.w3.org/1999/xlink" x="0px" y="0px"
	 width="59.031px" height="61.542px" viewBox="0 0 59.031 61.542" style="enable-background:new 0 0 59.031 61.542;"
	 xml:space="preserve">
<g id="_x31_">
	<g>
		<path d="M58.49,59.29l-0.587-0.652c-2.295-2.554-2.295-6.407,0-8.962l0.763-0.85c0.088-0.098,0.154-0.208,0.206-0.325
			c0.012-0.027,0.016-0.057,0.026-0.085c0.041-0.113,0.063-0.229,0.07-0.348c0.001-0.023,0.013-0.042,0.013-0.065V9.924
			C58.982,4.452,54.537,0,49.075,0H18.432c-0.679,0-1.229,0.551-1.229,1.231v45.54h-2.458V1.231c0-0.681-0.55-1.231-1.229-1.231
			H8.986C4.031,0,0,4.038,0,9.001v45.217c0,4.039,3.28,7.324,7.312,7.324h50.442c0.017-0.001,0.034-0.003,0.049,0
			c0.678,0,1.229-0.551,1.229-1.23C59.031,59.887,58.816,59.512,58.49,59.29z M34.406,2.462v19.477l-3.936-5.203
			c-0.231-0.308-0.594-0.488-0.979-0.488c-0.385,0-0.748,0.181-0.979,0.488l-3.936,5.203V2.462H34.406z M19.661,2.462h2.458v23.14
			c0,0.528,0.337,0.999,0.838,1.167c0.499,0.168,1.052-0.001,1.37-0.424l5.165-6.828l5.165,6.828
			c0.237,0.313,0.603,0.487,0.979,0.487c0.13,0,0.263-0.021,0.391-0.063c0.5-0.168,0.837-0.639,0.837-1.167V2.462h12.211
			c4.107,0,7.449,3.348,7.449,7.462v36.848H19.661V2.462z M8.986,2.462h3.302v44.31H7.312c-1.864,0-3.562,0.708-4.854,1.874V9.001
			C2.458,5.395,5.386,2.462,8.986,2.462z M7.312,59.08c-2.676,0-4.854-2.182-4.854-4.984c0-2.681,2.178-4.862,4.854-4.862H55.16
			c-0.958,1.5-1.438,3.212-1.438,4.924h-36.52c-0.679,0-1.229,0.55-1.229,1.23s0.549,1.23,1.229,1.23h36.862
			c0.24,0.857,0.601,1.688,1.095,2.462H7.312z"/>
	</g>
</g>
<g>
</g>
<g>
</g>
<g>
</g>
<g>
</g>
<g>
</g>
<g>
</g>
<g>
</g>
<g>
</g>
<g>
</g>
<g>
</g>
<g>
</g>
<g>
</g>
<g>
</g>
<g>
</g>
<g>
</g>
</svg>
