<?xml version="1.0" encoding="iso-8859-1"?>
<!-- Generator: Adobe Illustrator 16.0.4, SVG Export Plug-In . SVG Version: 6.00 Build 0)  -->
<!DOCTYPE svg PUBLIC "-//W3C//DTD SVG 1.1//EN" "http://www.w3.org/Graphics/SVG/1.1/DTD/svg11.dtd">
<svg version="1.1" id="Capa_1" xmlns="http://www.w3.org/2000/svg" xmlns:xlink="http://www.w3.org/1999/xlink" x="0px" y="0px"
	 width="54.468px" height="53.976px" viewBox="0 0 54.468 53.976" style="enable-background:new 0 0 54.468 53.976;"
	 xml:space="preserve">
<g id="_x32_9">
	<g>
		<path d="M29.88,4.718c-13.558,0-24.588,11.049-24.588,24.629s11.03,24.629,24.588,24.629s24.588-11.049,24.588-24.629
			S43.438,4.718,29.88,4.718z M29.88,51.49c-12.189,0-22.106-9.934-22.106-22.144c0-12.209,9.917-22.143,22.106-22.143
			s22.106,9.934,22.106,22.143C51.986,41.557,42.069,51.49,29.88,51.49z M43.435,30.539H31.146V15.77
			c0-0.681-0.549-1.231-1.229-1.231c-0.679,0-1.229,0.551-1.229,1.231v16.001c0,0.68,0.55,1.23,1.229,1.23h13.517
			c0.68,0,1.229-0.551,1.229-1.23C44.664,31.09,44.114,30.539,43.435,30.539z M15.703,2.343c0.611-0.293,0.871-1.028,0.578-1.642
			c-0.295-0.615-1.029-0.875-1.639-0.579C7.898,3.357,2.86,9.046,0.076,16.572c-0.234,0.637,0.09,1.346,0.726,1.582
			c0.142,0.053,0.285,0.076,0.427,0.076c0.499,0,0.97-0.308,1.152-0.803C4.939,10.512,9.545,5.295,15.703,2.343z"/>
	</g>
</g>
<g>
</g>
<g>
</g>
<g>
</g>
<g>
</g>
<g>
</g>
<g>
</g>
<g>
</g>
<g>
</g>
<g>
</g>
<g>
</g>
<g>
</g>
<g>
</g>
<g>
</g>
<g>
</g>
<g>
</g>
</svg>
