<?xml version="1.0" encoding="iso-8859-1"?>
<!-- Generator: Adobe Illustrator 16.0.4, SVG Export Plug-In . SVG Version: 6.00 Build 0)  -->
<!DOCTYPE svg PUBLIC "-//W3C//DTD SVG 1.1//EN" "http://www.w3.org/Graphics/SVG/1.1/DTD/svg11.dtd">
<svg version="1.1" id="Capa_1" xmlns="http://www.w3.org/2000/svg" xmlns:xlink="http://www.w3.org/1999/xlink" x="0px" y="0px"
	 width="58.981px" height="48.442px" viewBox="0 0 58.981 48.442" style="enable-background:new 0 0 58.981 48.442;"
	 xml:space="preserve">
<g id="_x33_2">
	<g>
		<path d="M38.542,19.205c-1.397,0.48-13.73,4.799-16.44,7.983c-1.455,1.712-2.158,3.89-1.979,6.133
			c0.18,2.24,1.221,4.279,2.93,5.735c1.519,1.296,3.454,2.01,5.447,2.01c2.469,0,4.802-1.079,6.402-2.959
			c2.708-3.188,4.999-16.07,5.251-17.529c0.074-0.429-0.083-0.863-0.414-1.147C39.407,19.149,38.954,19.061,38.542,19.205z
			 M33.03,36.511c-2.048,2.407-5.979,2.727-8.386,0.671c-1.209-1.031-1.946-2.471-2.072-4.058c-0.127-1.587,0.37-3.128,1.399-4.339
			c1.52-1.786,8.223-4.652,13.375-6.542C36.318,27.532,34.533,34.742,33.03,36.511z M29.49,0C13.229,0,0,13.44,0,29.961
			c0,6.301,2.059,12.681,5.799,17.962c0.23,0.327,0.604,0.52,1.002,0.52H52.18c0.398,0,0.772-0.192,1.002-0.52
			c3.741-5.281,5.8-11.71,5.8-18.102C58.981,13.378,45.752,0,29.49,0z M51.537,45.98H7.444c-3.22-4.765-4.987-10.429-4.987-16.02
			c0-15.162,12.127-27.5,27.033-27.5s27.034,12.272,27.034,27.36C56.524,35.499,54.757,41.214,51.537,45.98z M29.49,7.082
			c-11.419,0-20.709,9.396-20.709,20.945c0,0.681,0.55,1.231,1.229,1.231c0.68,0,1.229-0.551,1.229-1.231
			c0-10.192,8.188-18.484,18.252-18.484c10.064,0,18.252,8.263,18.252,18.417c0,0.681,0.55,1.231,1.229,1.231
			c0.679,0,1.229-0.551,1.229-1.231C50.2,16.447,40.91,7.082,29.49,7.082z"/>
	</g>
</g>
<g>
</g>
<g>
</g>
<g>
</g>
<g>
</g>
<g>
</g>
<g>
</g>
<g>
</g>
<g>
</g>
<g>
</g>
<g>
</g>
<g>
</g>
<g>
</g>
<g>
</g>
<g>
</g>
<g>
</g>
</svg>
