<?xml version="1.0" encoding="iso-8859-1"?>
<!-- Generator: Adobe Illustrator 16.0.4, SVG Export Plug-In . SVG Version: 6.00 Build 0)  -->
<!DOCTYPE svg PUBLIC "-//W3C//DTD SVG 1.1//EN" "http://www.w3.org/Graphics/SVG/1.1/DTD/svg11.dtd">
<svg version="1.1" id="Capa_1" xmlns="http://www.w3.org/2000/svg" xmlns:xlink="http://www.w3.org/1999/xlink" x="0px" y="0px"
	 width="56.524px" height="56.618px" viewBox="0 0 56.524 56.618" style="enable-background:new 0 0 56.524 56.618;"
	 xml:space="preserve">
<g id="_x31_2">
	<g>
		<path d="M39.321,14.771H17.203c-0.68,0-1.229,0.55-1.229,1.23s0.55,1.23,1.229,1.23h22.118c0.679,0,1.229-0.55,1.229-1.23
			S40,14.771,39.321,14.771z M39.321,22.155H17.203c-0.68,0-1.229,0.55-1.229,1.23s0.55,1.231,1.229,1.231h22.118
			c0.679,0,1.229-0.551,1.229-1.231S40,22.155,39.321,22.155z M39.321,29.54H17.203c-0.68,0-1.229,0.551-1.229,1.23
			c0,0.681,0.55,1.231,1.229,1.231h22.118c0.679,0,1.229-0.551,1.229-1.231C40.55,30.091,40,29.54,39.321,29.54z M52.224,0H4.301
			C1.93,0,0,1.933,0,4.308v47.003c0,2.927,2.378,5.308,5.299,5.308h10.675c0.68,0,1.229-0.55,1.229-1.23v-3.692h22.118v3.692
			c0,0.681,0.549,1.23,1.229,1.23h13.133c1.566,0,2.842-1.276,2.842-2.846V4.308C56.524,1.933,54.595,0,52.224,0z M39.321,49.233
			H17.203V44.31h22.118V49.233z M54.066,53.772c0,0.211-0.173,0.384-0.384,0.384H41.778V43.079c0-0.681-0.55-1.23-1.229-1.23H15.974
			c-0.679,0-1.229,0.55-1.229,1.23v11.077H5.299c-1.567,0-2.842-1.276-2.842-2.846V4.308c0-1.018,0.828-1.846,1.844-1.846h47.923
			c1.015,0,1.843,0.828,1.843,1.846V53.772z"/>
	</g>
</g>
<g>
</g>
<g>
</g>
<g>
</g>
<g>
</g>
<g>
</g>
<g>
</g>
<g>
</g>
<g>
</g>
<g>
</g>
<g>
</g>
<g>
</g>
<g>
</g>
<g>
</g>
<g>
</g>
<g>
</g>
</svg>
