<?xml version="1.0" encoding="iso-8859-1"?>
<!-- Generator: Adobe Illustrator 16.0.4, SVG Export Plug-In . SVG Version: 6.00 Build 0)  -->
<!DOCTYPE svg PUBLIC "-//W3C//DTD SVG 1.1//EN" "http://www.w3.org/Graphics/SVG/1.1/DTD/svg11.dtd">
<svg version="1.1" id="Capa_1" xmlns="http://www.w3.org/2000/svg" xmlns:xlink="http://www.w3.org/1999/xlink" x="0px" y="0px"
	 width="51.618px" height="64.534px" viewBox="0 0 51.618 64.534" style="enable-background:new 0 0 51.618 64.534;"
	 xml:space="preserve">
<g id="_x33_1">
	<g>
		<path d="M42.589,16.919c0.021-0.142,0.033-0.293,0.033-0.449C42.622,7.388,35.283,0,26.263,0C17.219,0,9.86,7.39,9.86,16.472
			c0,0.104,0.002,0.205,0.006,0.311C4.089,18.46,0,23.84,0,29.961c0,7.686,5.93,13.707,13.5,13.707c0.238,0,5.09-0.026,7.427-0.041
			v11.96h-1.992c-1.292,0-2.099,1.4-1.453,2.521l3.221,5.587c0.646,1.12,2.26,1.12,2.906,0l3.221-5.587
			c0.646-1.12-0.161-2.521-1.453-2.521h-1.992V42.39c0-0.327-0.131-0.643-0.363-0.873c-0.231-0.229-0.551-0.404-0.874-0.358
			c0,0-8.335,0.048-8.648,0.048c-6.192,0-11.042-4.939-11.042-11.245c0-5.322,3.764-9.96,8.952-11.027
			c0.61-0.127,1.017-0.842,0.965-1.462c-0.027-0.329-0.056-0.663-0.056-1c0-7.726,6.255-14.01,13.945-14.01
			c7.666,0,13.902,6.284,13.902,14.008c0,0.101-0.043,0.276-0.085,0.447c-0.062,0.26-0.12,0.517-0.142,0.773
			c-0.052,0.608,0.349,1.161,0.943,1.301c4.952,1.166,8.279,5.57,8.279,10.962c0,5.996-5.593,11.253-11.969,11.253
			c-0.313,0-10.115-0.048-10.115-0.048c-0.347-0.046-0.641,0.13-0.872,0.358c-0.231,0.23-0.362,0.546-0.362,0.873v7.824
			c0,0.681,0.549,1.231,1.229,1.231s1.229-0.551,1.229-1.231v-6.587c2.647,0.013,8.648,0.041,8.892,0.041
			c7.82,0,14.426-6.281,14.426-13.715C51.618,23.816,48.037,18.722,42.589,16.919z"/>
	</g>
</g>
<g>
</g>
<g>
</g>
<g>
</g>
<g>
</g>
<g>
</g>
<g>
</g>
<g>
</g>
<g>
</g>
<g>
</g>
<g>
</g>
<g>
</g>
<g>
</g>
<g>
</g>
<g>
</g>
<g>
</g>
</svg>
