<?xml version="1.0" encoding="iso-8859-1"?>
<!-- Generator: Adobe Illustrator 16.0.4, SVG Export Plug-In . SVG Version: 6.00 Build 0)  -->
<!DOCTYPE svg PUBLIC "-//W3C//DTD SVG 1.1//EN" "http://www.w3.org/Graphics/SVG/1.1/DTD/svg11.dtd">
<svg version="1.1" id="Capa_1" xmlns="http://www.w3.org/2000/svg" xmlns:xlink="http://www.w3.org/1999/xlink" x="0px" y="0px"
	 width="41.778px" height="53.664px" viewBox="0 0 41.778 53.664" style="enable-background:new 0 0 41.778 53.664;"
	 xml:space="preserve">
<g id="_x35_">
	<g>
		<path d="M29.304,9.484c-4.544-0.918-9.221,0.492-12.497,3.773c-2.956,2.962-4.379,7.114-3.937,11.254h-2.098
			c-1.291,0-2.099,1.4-1.452,2.521l3.221,5.587c0.646,1.12,2.26,1.12,2.905,0l3.222-5.587c0.646-1.121-0.161-2.521-1.453-2.521
			h-1.877c-0.456-3.49,0.714-7.017,3.206-9.513c2.693-2.698,6.533-3.861,10.274-3.102c0.653,0.136,1.313-0.296,1.447-0.963
			C30.4,10.268,29.969,9.618,29.304,9.484z M32.688,0H9.093C4.079,0,0,4.086,0,9.107v30.854c0,0.326,0.129,0.64,0.359,0.87
			l12.454,12.472c0.23,0.23,0.542,0.36,0.868,0.36h19.006c5.014,0,9.091-4.086,9.091-9.107V9.107C41.778,4.086,37.701,0,32.688,0z
			 M12.766,49.775l-9.616-9.63h4.557c2.695,0,5.06,2.01,5.06,4.3V49.775z M39.321,44.557c0,3.665-2.977,6.646-6.634,6.646H15.223
			v-6.757c0-3.665-3.441-6.762-7.517-6.762H2.457V9.107c0-3.664,2.977-6.646,6.636-6.646h23.595c3.657,0,6.634,2.981,6.634,6.646
			V44.557z"/>
	</g>
</g>
<g>
</g>
<g>
</g>
<g>
</g>
<g>
</g>
<g>
</g>
<g>
</g>
<g>
</g>
<g>
</g>
<g>
</g>
<g>
</g>
<g>
</g>
<g>
</g>
<g>
</g>
<g>
</g>
<g>
</g>
</svg>
