<?xml version="1.0" encoding="iso-8859-1"?>
<!-- Generator: Adobe Illustrator 16.0.4, SVG Export Plug-In . SVG Version: 6.00 Build 0)  -->
<!DOCTYPE svg PUBLIC "-//W3C//DTD SVG 1.1//EN" "http://www.w3.org/Graphics/SVG/1.1/DTD/svg11.dtd">
<svg version="1.1" id="Capa_1" xmlns="http://www.w3.org/2000/svg" xmlns:xlink="http://www.w3.org/1999/xlink" x="0px" y="0px"
	 width="60.211px" height="60.311px" viewBox="0 0 60.211 60.311" style="enable-background:new 0 0 60.211 60.311;"
	 xml:space="preserve">
<g id="_x33_4">
	<g>
		<path d="M58.982,0c-0.68,0-1.229,0.551-1.229,1.23v6.097l-9.212,4.811c-1.279-1.656-3.278-2.729-5.526-2.729
			c-3.857,0-6.994,3.142-6.994,7.003c0,2.409,1.221,4.538,3.075,5.799l-3.058,6.895c-0.537-0.132-1.095-0.21-1.671-0.21
			c-3.856,0-6.993,3.143-6.993,7.006c0,0.577,0.078,1.135,0.21,1.672l-6.884,3.064c-1.259-1.857-3.384-3.08-5.79-3.08
			c-3.854,0-6.99,3.142-6.99,7.005c0,2.348,1.163,4.424,2.938,5.695L7.268,57.85H1.229C0.55,57.85,0,58.399,0,59.08
			s0.55,1.23,1.229,1.23h54.374c2.541,0,4.607-2.069,4.607-4.615V1.23C60.211,0.551,59.662,0,58.982,0z M43.016,11.871
			c1.736,0,3.229,0.992,3.991,2.43c0.004,0.008,0.003,0.017,0.007,0.024c0.007,0.014,0.019,0.023,0.025,0.036
			c0.316,0.619,0.512,1.309,0.512,2.051c0,2.505-2.034,4.543-4.535,4.543s-4.536-2.038-4.536-4.543S40.515,11.871,43.016,11.871z
			 M34.368,31.357c2.501,0,4.536,2.039,4.536,4.544s-2.035,4.541-4.536,4.541s-4.536-2.036-4.536-4.541S31.867,31.357,34.368,31.357
			z M14.911,40.019c2.501,0,4.536,2.039,4.536,4.544s-2.035,4.541-4.536,4.541c-0.69,0-1.338-0.167-1.924-0.445
			c-0.004-0.001-0.006-0.005-0.01-0.007c-0.002-0.001-0.005-0.001-0.007-0.002c-1.527-0.73-2.593-2.28-2.593-4.087
			C10.378,42.058,12.411,40.019,14.911,40.019z M55.604,57.85H9.988l3.091-6.536c0.585,0.159,1.197,0.252,1.832,0.252
			c3.857,0,6.994-3.142,6.994-7.003c0-0.578-0.078-1.136-0.21-1.674l6.884-3.063c1.26,1.855,3.384,3.078,5.789,3.078
			c3.856,0,6.994-3.142,6.994-7.002c0-2.41-1.221-4.538-3.075-5.8l3.058-6.895c0.537,0.132,1.094,0.21,1.671,0.21
			c3.856,0,6.993-3.142,6.993-7.005c0-0.729-0.112-1.434-0.32-2.096l8.065-4.213v45.592C57.754,56.883,56.789,57.85,55.604,57.85z"
			/>
	</g>
</g>
<g>
</g>
<g>
</g>
<g>
</g>
<g>
</g>
<g>
</g>
<g>
</g>
<g>
</g>
<g>
</g>
<g>
</g>
<g>
</g>
<g>
</g>
<g>
</g>
<g>
</g>
<g>
</g>
<g>
</g>
</svg>
