<?xml version="1.0" encoding="iso-8859-1"?>
<!-- Generator: Adobe Illustrator 16.0.4, SVG Export Plug-In . SVG Version: 6.00 Build 0)  -->
<!DOCTYPE svg PUBLIC "-//W3C//DTD SVG 1.1//EN" "http://www.w3.org/Graphics/SVG/1.1/DTD/svg11.dtd">
<svg version="1.1" id="Capa_1" xmlns="http://www.w3.org/2000/svg" xmlns:xlink="http://www.w3.org/1999/xlink" x="0px" y="0px"
	 width="58.354px" height="51.302px" viewBox="0 0 58.354 51.302" style="enable-background:new 0 0 58.354 51.302;"
	 xml:space="preserve">
<g id="_x34_">
	<g>
		<path d="M52.93,25.695L30.074,48.59c-0.321,0.321-0.888,0.321-1.209,0L6.01,25.695c-0.479-0.48-1.258-0.48-1.737,0
			s-0.479,1.26,0,1.74L27.128,50.33c0.626,0.626,1.456,0.972,2.342,0.972s1.716-0.346,2.343-0.972l22.854-22.895
			c0.48-0.48,0.48-1.26,0-1.74C54.188,25.215,53.41,25.215,52.93,25.695z M41.765,0c-4.854,0-9.45,2.149-12.587,5.808
			C26.04,2.149,21.443,0,16.589,0C7.443,0,0,7.454,0,16.616c0,0.681,0.55,1.231,1.229,1.231c0.679,0,1.229-0.551,1.229-1.231
			c0-7.804,6.339-14.154,14.131-14.154c4.575,0,8.888,2.234,11.534,5.979c0.252,0.354,0.654,0.513,1.055,0.497
			c0.401,0.016,0.803-0.143,1.053-0.497c2.647-3.744,6.96-5.979,11.534-5.979c7.793,0,14.132,6.351,14.132,14.154
			c0,0.681,0.549,1.231,1.229,1.231c0.679,0,1.229-0.551,1.229-1.231C58.354,7.454,50.911,0,41.765,0z"/>
	</g>
</g>
<g>
</g>
<g>
</g>
<g>
</g>
<g>
</g>
<g>
</g>
<g>
</g>
<g>
</g>
<g>
</g>
<g>
</g>
<g>
</g>
<g>
</g>
<g>
</g>
<g>
</g>
<g>
</g>
<g>
</g>
</svg>
