<?xml version="1.0" encoding="iso-8859-1"?>
<!-- Generator: Adobe Illustrator 16.0.4, SVG Export Plug-In . SVG Version: 6.00 Build 0)  -->
<!DOCTYPE svg PUBLIC "-//W3C//DTD SVG 1.1//EN" "http://www.w3.org/Graphics/SVG/1.1/DTD/svg11.dtd">
<svg version="1.1" id="Capa_1" xmlns="http://www.w3.org/2000/svg" xmlns:xlink="http://www.w3.org/1999/xlink" x="0px" y="0px"
	 width="54.858px" height="54.948px" viewBox="0 0 54.858 54.948" style="enable-background:new 0 0 54.858 54.948;"
	 xml:space="preserve">
<g id="_x32_6">
	<g>
		<path d="M53.062,8.761L46.11,1.799c-2.394-2.398-6.292-2.398-8.688,0L25.257,13.982c-2.396,2.399-2.396,6.306,0,8.705
			c0.48,0.48,1.258,0.48,1.738,0c0.479-0.481,0.479-1.26,0-1.741c-1.438-1.439-1.438-3.783,0-5.224L39.159,3.539
			c1.438-1.437,3.777-1.437,5.214,0l6.95,6.963c1.438,1.439,1.438,3.783,0,5.224L39.159,27.909c-1.393,1.394-3.82,1.394-5.213,0
			c-0.48-0.481-1.258-0.481-1.737,0c-0.48,0.48-0.48,1.259,0,1.74c1.159,1.163,2.702,1.803,4.344,1.803s3.185-0.64,4.344-1.803
			l12.165-12.184C55.457,15.066,55.457,11.16,53.062,8.761z M27.863,32.26c-0.479,0.48-0.479,1.26,0,1.74
			c1.438,1.44,1.438,3.784,0,5.224L15.699,51.407c-1.438,1.438-3.777,1.438-5.214,0l-6.95-6.962c-1.438-1.439-1.438-3.783,0-5.224
			l12.164-12.184c1.393-1.395,3.82-1.395,5.213,0c0.48,0.481,1.258,0.481,1.737,0c0.48-0.48,0.48-1.26,0-1.74
			c-2.318-2.327-6.369-2.327-8.688,0L1.798,37.481c-2.396,2.398-2.396,6.306,0,8.705l6.95,6.961c1.197,1.2,2.771,1.801,4.345,1.801
			c1.573,0,3.146-0.601,4.344-1.801l12.165-12.183c2.396-2.399,2.396-6.306,0-8.705C29.121,31.779,28.344,31.779,27.863,32.26z
			 M12.225,42.705c0.239,0.24,0.554,0.36,0.868,0.36s0.629-0.12,0.869-0.36l27.804-27.853c0.479-0.48,0.479-1.26,0-1.74
			c-0.48-0.48-1.258-0.48-1.737,0L12.225,40.965C11.744,41.445,11.744,42.225,12.225,42.705z"/>
	</g>
</g>
<g>
</g>
<g>
</g>
<g>
</g>
<g>
</g>
<g>
</g>
<g>
</g>
<g>
</g>
<g>
</g>
<g>
</g>
<g>
</g>
<g>
</g>
<g>
</g>
<g>
</g>
<g>
</g>
<g>
</g>
</svg>
