<?xml version="1.0" encoding="iso-8859-1"?>
<!-- Generator: Adobe Illustrator 16.0.4, SVG Export Plug-In . SVG Version: 6.00 Build 0)  -->
<!DOCTYPE svg PUBLIC "-//W3C//DTD SVG 1.1//EN" "http://www.w3.org/Graphics/SVG/1.1/DTD/svg11.dtd">
<svg version="1.1" id="Capa_1" xmlns="http://www.w3.org/2000/svg" xmlns:xlink="http://www.w3.org/1999/xlink" x="0px" y="0px"
	 width="58.982px" height="59.16px" viewBox="0 0 58.982 59.16" style="enable-background:new 0 0 58.982 59.16;"
	 xml:space="preserve">
<g id="_x31_3">
	<g>
		<path d="M53.146,6.193H5.837C2.619,6.193,0,8.816,0,12.041v35.08c0,3.225,2.619,5.846,5.837,5.846h47.311
			c3.218,0,5.836-2.621,5.836-5.846v-35.08C58.982,8.816,56.364,6.193,53.146,6.193z M56.524,47.119
			c0,1.865-1.518,3.386-3.379,3.386H5.837c-1.862,0-3.379-1.521-3.379-3.386V12.041c0-1.865,1.518-3.386,3.379-3.386h47.311
			c1.861,0,3.379,1.521,3.379,3.386L56.524,47.119L56.524,47.119z M38.029,29.146l12.104-12.123c0.48-0.479,0.48-1.26,0-1.74
			c-0.479-0.479-1.257-0.479-1.735,0L29.491,34.218L10.955,15.65c-0.479-0.479-1.257-0.479-1.737,0c-0.479,0.481-0.479,1.26,0,1.741
			l12.053,12.07L9.414,41.337c-0.479,0.479-0.479,1.26,0,1.737c0.24,0.24,0.554,0.361,0.869,0.361s0.629-0.121,0.869-0.361
			l11.854-11.873l5.617,5.626c0.24,0.24,0.554,0.361,0.869,0.361s0.629-0.121,0.869-0.361l5.932-5.94L48.46,43.074
			c0.24,0.24,0.556,0.361,0.869,0.361c0.314,0,0.628-0.121,0.869-0.361c0.48-0.479,0.48-1.26,0-1.737L38.029,29.146z"/>
	</g>
</g>
</svg>
