<?xml version="1.0" encoding="iso-8859-1"?>
<!-- Generator: Adobe Illustrator 16.0.4, SVG Export Plug-In . SVG Version: 6.00 Build 0)  -->
<!DOCTYPE svg PUBLIC "-//W3C//DTD SVG 1.1//EN" "http://www.w3.org/Graphics/SVG/1.1/DTD/svg11.dtd">
<svg version="1.1" id="Capa_1" xmlns="http://www.w3.org/2000/svg" xmlns:xlink="http://www.w3.org/1999/xlink" x="0px" y="0px"
	 width="44.654px" height="71.679px" viewBox="0 0 44.654 71.679" style="enable-background:new 0 0 44.654 71.679;"
	 xml:space="preserve">
<g id="_x31_1">
	<g>
		<path d="M24.425,1.063c-0.29-0.475-0.886-1.044-1.901-1.044L22.258,0c-1.119,0-1.735,0.968-1.995,1.374
			C20.062,1.688,0,33.13,0,48.137c0,12.981,10.006,23.542,22.327,23.542h0.024c12.256,0,22.262-10.53,22.303-23.472
			C44.707,33.161,24.616,1.364,24.425,1.063z M22.352,69.218h-0.049c-10.943,0-19.846-9.458-19.846-21.081
			c0-14.066,19.671-45.117,19.875-45.431c0.043-0.071,0.081-0.128,0.112-0.172c5.611,8.865,19.793,33.846,19.752,45.664
			C42.158,59.788,33.257,69.218,22.352,69.218z M22.036,15.174c-0.597-0.326-1.339-0.104-1.665,0.49
			c-5.369,9.848-11.77,23.308-11.77,31.506c0,3.428,0.732,6.673,2.18,9.646c0.211,0.438,0.649,0.692,1.104,0.692
			c0.183,0,0.364-0.04,0.537-0.124c0.61-0.298,0.864-1.035,0.566-1.646c-1.278-2.635-1.93-5.517-1.93-8.568
			c0-6.078,3.965-16.563,11.468-30.325C22.853,16.247,22.634,15.499,22.036,15.174z"/>
	</g>
</g>
<g>
</g>
<g>
</g>
<g>
</g>
<g>
</g>
<g>
</g>
<g>
</g>
<g>
</g>
<g>
</g>
<g>
</g>
<g>
</g>
<g>
</g>
<g>
</g>
<g>
</g>
<g>
</g>
<g>
</g>
</svg>
