<?xml version="1.0" encoding="iso-8859-1"?>
<!-- Generator: Adobe Illustrator 16.0.4, SVG Export Plug-In . SVG Version: 6.00 Build 0)  -->
<!DOCTYPE svg PUBLIC "-//W3C//DTD SVG 1.1//EN" "http://www.w3.org/Graphics/SVG/1.1/DTD/svg11.dtd">
<svg version="1.1" id="Capa_1" xmlns="http://www.w3.org/2000/svg" xmlns:xlink="http://www.w3.org/1999/xlink" x="0px" y="0px"
	 width="58.981px" height="59.16px" viewBox="0 0 58.981 59.16" style="enable-background:new 0 0 58.981 59.16;"
	 xml:space="preserve">
<g id="_x31_4">
	<g>
		<path d="M57.753,25.928c-0.68,0-1.229,0.551-1.229,1.231v26.155c0,1.866-1.516,3.385-3.38,3.385H5.836
			c-1.863,0-3.379-1.519-3.379-3.385V18.235c0-1.866,1.516-3.385,3.379-3.385h49.175L29.49,40.413l-5.616-5.625l0-0.001
			c0,0,0,0-0.001-0.001l-12.919-12.94c-0.479-0.48-1.258-0.48-1.737,0c-0.48,0.481-0.48,1.26,0,1.741l12.051,12.07L9.414,47.53
			c-0.48,0.48-0.48,1.26,0,1.74c0.239,0.24,0.554,0.36,0.868,0.36s0.629-0.12,0.869-0.36l11.854-11.873l5.617,5.626
			c0.239,0.241,0.555,0.361,0.868,0.361c0.314,0,0.629-0.12,0.869-0.361l5.932-5.941L48.46,49.271c0.24,0.24,0.555,0.36,0.869,0.36
			s0.629-0.12,0.868-0.36c0.48-0.48,0.48-1.26,0-1.74L38.029,35.342L58.146,15.19c0.48-0.48,0.48-1.259,0-1.74L45.08,0.36
			c-0.48-0.48-1.258-0.48-1.738,0c-0.479,0.481-0.479,1.26,0,1.741l10.27,10.287H5.836C2.618,12.389,0,15.012,0,18.235v35.079
			c0,3.224,2.618,5.846,5.836,5.846h47.309c3.219,0,5.837-2.622,5.837-5.846V27.159C58.981,26.479,58.432,25.928,57.753,25.928z"/>
	</g>
</g>
<g>
</g>
<g>
</g>
<g>
</g>
<g>
</g>
<g>
</g>
<g>
</g>
<g>
</g>
<g>
</g>
<g>
</g>
<g>
</g>
<g>
</g>
<g>
</g>
<g>
</g>
<g>
</g>
<g>
</g>
</svg>
