<?xml version="1.0" encoding="iso-8859-1"?>
<!-- Generator: Adobe Illustrator 16.0.4, SVG Export Plug-In . SVG Version: 6.00 Build 0)  -->
<!DOCTYPE svg PUBLIC "-//W3C//DTD SVG 1.1//EN" "http://www.w3.org/Graphics/SVG/1.1/DTD/svg11.dtd">
<svg version="1.1" id="Capa_1" xmlns="http://www.w3.org/2000/svg" xmlns:xlink="http://www.w3.org/1999/xlink" x="0px" y="0px"
	 width="54.536px" height="43.53px" viewBox="0 0 54.536 43.53" style="enable-background:new 0 0 54.536 43.53;"
	 xml:space="preserve">
<g id="_x31_6">
	<g>
		<path d="M50.261,0H4.274C1.914,0,0,1.917,0,4.281v34.967c0,2.365,1.914,4.282,4.274,4.282h45.986c2.361,0,4.275-1.917,4.275-4.282
			V4.281C54.536,1.917,52.622,0,50.261,0z M52.078,39.248c0,1.004-0.814,1.82-1.817,1.82H4.274c-1.002,0-1.817-0.816-1.817-1.82
			v-7.407l15.107-6.536l11.338,10.654c0.232,0.219,0.535,0.333,0.84,0.333c0.188,0,0.375-0.042,0.55-0.13l21.786-10.917V39.248z
			 M52.078,22.561c-0.098,0.021-0.196,0.031-0.29,0.077l-21.83,10.939l-11.301-10.62c-0.358-0.335-0.881-0.428-1.327-0.231
			L2.457,29.16V4.281c0-1.003,0.815-1.82,1.817-1.82h45.986c1.003,0,1.817,0.817,1.817,1.82V22.561z M33.309,13.912
			c-0.384-0.337-0.929-0.402-1.38-0.167l-8.229,4.302c-0.355,0.187-0.598,0.534-0.65,0.932c-0.051,0.399,0.094,0.797,0.392,1.068
			l7.23,6.622c0.23,0.212,0.528,0.322,0.828,0.322c0.197,0,0.396-0.047,0.576-0.145l8.356-4.449c0.358-0.19,0.598-0.543,0.646-0.944
			c0.046-0.401-0.107-0.8-0.41-1.067L33.309,13.912z M31.688,24.267l-5.297-4.851l5.929-3.098l5.388,4.741L31.688,24.267z
			 M44.425,7.447c-2.558,0-4.639,2.083-4.639,4.644c0,2.562,2.081,4.646,4.639,4.646c2.557,0,4.638-2.085,4.638-4.646
			C49.062,9.53,46.981,7.447,44.425,7.447z M44.425,14.275c-1.202,0-2.181-0.979-2.181-2.185c0-1.203,0.979-2.183,2.181-2.183
			c1.203,0,2.18,0.979,2.18,2.183C46.604,13.296,45.628,14.275,44.425,14.275z"/>
	</g>
</g>
<g>
</g>
<g>
</g>
<g>
</g>
<g>
</g>
<g>
</g>
<g>
</g>
<g>
</g>
<g>
</g>
<g>
</g>
<g>
</g>
<g>
</g>
<g>
</g>
<g>
</g>
<g>
</g>
<g>
</g>
</svg>
