<?xml version="1.0" encoding="iso-8859-1"?>
<!-- Generator: Adobe Illustrator 16.0.4, SVG Export Plug-In . SVG Version: 6.00 Build 0)  -->
<!DOCTYPE svg PUBLIC "-//W3C//DTD SVG 1.1//EN" "http://www.w3.org/Graphics/SVG/1.1/DTD/svg11.dtd">
<svg version="1.1" id="Capa_1" xmlns="http://www.w3.org/2000/svg" xmlns:xlink="http://www.w3.org/1999/xlink" x="0px" y="0px"
	 width="61.66px" height="59.551px" viewBox="0 0 61.66 59.551" style="enable-background:new 0 0 61.66 59.551;"
	 xml:space="preserve">
<g id="_x31_9">
	<g>
		<path d="M34.516,0c-0.679,0-1.229,0.551-1.229,1.23v24.853c0,0.681,0.549,1.23,1.229,1.23h25.915c0.679,0,1.229-0.55,1.229-1.23
			C61.66,9.75,51.513,0,34.516,0z M35.745,24.852V2.479c14.504,0.43,22.968,8.51,23.437,22.373H35.745z M53.215,29.813H34.773
			c-0.356,0-0.688,0.205-0.921,0.474c-0.233,0.27-0.331,0.676-0.281,1.029c0.024,0.171,0.051,0.339,0.051,0.515
			c0,3.074-2.496,5.577-5.563,5.577c-3.067,0-5.563-2.503-5.563-5.577c0-3.07,2.487-5.568,5.607-5.568
			c0.041,0.008,0.259,0.027,0.296,0.027c0.351,0.043,0.666-0.104,0.909-0.337c0.245-0.233,0.382-0.556,0.382-0.892V6.25
			c0-0.68-0.549-1.23-1.229-1.23C11.438,5.02,0,16.143,0,32.696c0,15.059,11.958,26.854,27.224,26.854
			c16.28,0,27.219-11.455,27.219-28.506C54.443,30.364,53.894,29.813,53.215,29.813z M27.224,57.089
			c-14.119,0-24.767-10.485-24.767-24.393c0-14.681,9.902-24.675,24.776-25.194v16.333c-4.037,0.414-7.195,3.842-7.195,7.996
			c0,4.433,3.598,8.039,8.021,8.039c4.273,0,7.777-3.368,8.009-7.595h15.897C51.473,47.395,41.873,57.089,27.224,57.089z"/>
	</g>
</g>
<g>
</g>
<g>
</g>
<g>
</g>
<g>
</g>
<g>
</g>
<g>
</g>
<g>
</g>
<g>
</g>
<g>
</g>
<g>
</g>
<g>
</g>
<g>
</g>
<g>
</g>
<g>
</g>
<g>
</g>
</svg>
