<?xml version="1.0" encoding="iso-8859-1"?>
<!-- Generator: Adobe Illustrator 16.0.4, SVG Export Plug-In . SVG Version: 6.00 Build 0)  -->
<!DOCTYPE svg PUBLIC "-//W3C//DTD SVG 1.1//EN" "http://www.w3.org/Graphics/SVG/1.1/DTD/svg11.dtd">
<svg version="1.1" id="Capa_1" xmlns="http://www.w3.org/2000/svg" xmlns:xlink="http://www.w3.org/1999/xlink" x="0px" y="0px"
	 width="58.981px" height="59.079px" viewBox="0 0 58.981 59.079" style="enable-background:new 0 0 58.981 59.079;"
	 xml:space="preserve">
<g id="_x33_6">
	<g>
		<path d="M9.83,25.297c-1.356,0-2.458,1.104-2.458,2.461c0,1.358,1.102,2.462,2.458,2.462c1.355,0,2.457-1.104,2.457-2.462
			C12.287,26.4,11.186,25.297,9.83,25.297z M33.118,36.174l-5.577-3.227c-1.119-0.646-2.518,0.162-2.518,1.455v6.453
			c0,1.293,1.398,2.103,2.518,1.455l5.577-3.227C34.237,38.438,34.237,36.82,33.118,36.174z M58.981,11.077V1.23
			c0-0.681-0.55-1.23-1.229-1.23H43.007c-0.679,0-1.229,0.55-1.229,1.23v16.001H1.229c-0.68,0-1.229,0.55-1.229,1.23v39.387
			c0,0.681,0.549,1.23,1.229,1.23h56.524c0.679,0,1.229-0.55,1.229-1.23V18.462c0-0.681-0.55-1.23-1.229-1.23H44.261
			c-0.003-1.702-0.006-3.363-0.009-4.924h13.501C58.432,12.308,58.981,11.758,58.981,11.077z M44.294,38.189
			c0-0.196-0.015-9.454-0.029-18.496h12.26v36.925H2.457V19.693h39.321v10.238c-2.66-3.96-7.175-6.57-12.288-6.57
			c-8.162,0-14.803,6.652-14.803,14.828s6.641,14.827,14.803,14.827c7.753,0,14.121-6.003,14.742-13.611
			c0-0.007,0.004-0.013,0.004-0.019v-0.058C44.265,38.951,44.294,38.574,44.294,38.189z M41.721,38.189
			c0,6.755-5.486,12.25-12.23,12.25c-6.743,0-12.23-5.495-12.23-12.25c0-6.756,5.487-12.251,12.23-12.251
			C36.234,25.938,41.721,31.434,41.721,38.189z M56.524,9.847H44.248c-0.007-4.322-0.012-7.386-0.012-7.386h12.288V9.847z"/>
	</g>
</g>
<g>
</g>
<g>
</g>
<g>
</g>
<g>
</g>
<g>
</g>
<g>
</g>
<g>
</g>
<g>
</g>
<g>
</g>
<g>
</g>
<g>
</g>
<g>
</g>
<g>
</g>
<g>
</g>
<g>
</g>
</svg>
