<?xml version="1.0" encoding="iso-8859-1"?>
<!-- Generator: Adobe Illustrator 16.0.4, SVG Export Plug-In . SVG Version: 6.00 Build 0)  -->
<!DOCTYPE svg PUBLIC "-//W3C//DTD SVG 1.1//EN" "http://www.w3.org/Graphics/SVG/1.1/DTD/svg11.dtd">
<svg version="1.1" id="Capa_1" xmlns="http://www.w3.org/2000/svg" xmlns:xlink="http://www.w3.org/1999/xlink" x="0px" y="0px"
	 width="49.152px" height="69.307px" viewBox="0 0 49.152 69.307" style="enable-background:new 0 0 49.152 69.307;"
	 xml:space="preserve">
<g id="_x32_5">
	<g>
		<path d="M47.923,17.231h-6.144V4.888C41.779,2.192,39.59,0,36.827,0c-2.689,0-4.878,2.192-4.878,4.888v12.344H18.432V4.888
			C18.432,2.192,16.243,0,13.48,0c-2.689,0-4.878,2.192-4.878,4.888v12.344H1.229C0.55,17.231,0,17.782,0,18.462v20.463
			c0,4.327,3.514,7.847,7.834,7.847h9.456c-0.051,0.135-0.087,0.277-0.087,0.431v20.873c0,0.681,0.55,1.231,1.229,1.231
			s1.229-0.551,1.229-1.231V47.202c0-0.153-0.036-0.296-0.087-0.431h10.003c-0.05,0.135-0.086,0.277-0.086,0.431V60.69
			c0,0.681,0.549,1.23,1.229,1.23c0.679,0,1.229-0.55,1.229-1.23V47.202c0-0.153-0.036-0.296-0.086-0.431h9.456
			c4.32,0,7.833-3.52,7.833-7.847V18.462C49.152,17.782,48.603,17.231,47.923,17.231z M34.406,4.888
			c0-1.337,1.086-2.426,2.495-2.426c1.334,0,2.42,1.089,2.42,2.426v12.344h-4.915V4.888z M11.06,4.888
			c0-1.337,1.086-2.426,2.495-2.426c1.334,0,2.42,1.089,2.42,2.426v12.344H11.06V4.888z M46.694,38.925
			c0,2.969-2.412,5.385-5.376,5.385H7.834c-2.964,0-5.376-2.416-5.376-5.385V19.693h44.236V38.925z"/>
	</g>
</g>
<g>
</g>
<g>
</g>
<g>
</g>
<g>
</g>
<g>
</g>
<g>
</g>
<g>
</g>
<g>
</g>
<g>
</g>
<g>
</g>
<g>
</g>
<g>
</g>
<g>
</g>
<g>
</g>
<g>
</g>
</svg>
