<?xml version="1.0" encoding="iso-8859-1"?>
<!-- Generator: Adobe Illustrator 16.0.4, SVG Export Plug-In . SVG Version: 6.00 Build 0)  -->
<!DOCTYPE svg PUBLIC "-//W3C//DTD SVG 1.1//EN" "http://www.w3.org/Graphics/SVG/1.1/DTD/svg11.dtd">
<svg version="1.1" id="Capa_1" xmlns="http://www.w3.org/2000/svg" xmlns:xlink="http://www.w3.org/1999/xlink" x="0px" y="0px"
	 width="67.584px" height="60.311px" viewBox="0 0 67.584 60.311" style="enable-background:new 0 0 67.584 60.311;"
	 xml:space="preserve">
<g id="_x31_8">
	<g>
		<path d="M55.296,34.464c-0.68,0-1.229,0.55-1.229,1.23v15.628c0,3.599-2.923,6.527-6.516,6.527H8.974
			c-3.593,0-6.516-2.929-6.516-6.527V20.066c0-3.599,2.923-6.527,6.516-6.527h22.975c0.68,0,1.229-0.55,1.229-1.23
			s-0.55-1.23-1.229-1.23H8.974C4.024,11.078,0,15.11,0,20.066v31.256c0,4.956,4.024,8.988,8.974,8.988h38.577
			c4.949,0,8.974-4.032,8.974-8.988V35.694C56.524,35.014,55.975,34.464,55.296,34.464z M52.8,0c-8.15,0-14.781,6.643-14.781,14.808
			c0,3.38,1.148,6.488,3.058,8.982L30.002,42.025c-0.323,0.532-0.199,1.223,0.291,1.606c0.223,0.177,0.491,0.264,0.758,0.264
			c0.317,0,0.632-0.121,0.869-0.36l15.083-15.109c1.781,0.764,3.74,1.189,5.797,1.189c8.152,0,14.784-6.643,14.784-14.808
			S60.952,0,52.8,0z M37.423,34.541l5.379-8.859c0.605,0.56,1.251,1.072,1.942,1.525L37.423,34.541z M52.8,27.153
			c-6.795,0-12.324-5.539-12.324-12.346S46.005,2.462,52.8,2.462c6.797,0,12.326,5.539,12.326,12.346S59.597,27.153,52.8,27.153z
			 M59.709,8.642c-0.448-0.504-1.224-0.551-1.735-0.099c-0.506,0.451-0.549,1.229-0.098,1.738c1.108,1.246,1.721,2.853,1.721,4.526
			c0,3.754-3.048,6.807-6.797,6.807c-0.68,0-1.229,0.551-1.229,1.23c0,0.681,0.549,1.231,1.229,1.231
			c5.102,0,9.254-4.158,9.254-9.269C62.054,12.529,61.221,10.34,59.709,8.642z"/>
	</g>
</g>
<g>
</g>
<g>
</g>
<g>
</g>
<g>
</g>
<g>
</g>
<g>
</g>
<g>
</g>
<g>
</g>
<g>
</g>
<g>
</g>
<g>
</g>
<g>
</g>
<g>
</g>
<g>
</g>
<g>
</g>
</svg>
