<?xml version="1.0" encoding="iso-8859-1"?>
<!-- Generator: Adobe Illustrator 16.0.4, SVG Export Plug-In . SVG Version: 6.00 Build 0)  -->
<!DOCTYPE svg PUBLIC "-//W3C//DTD SVG 1.1//EN" "http://www.w3.org/Graphics/SVG/1.1/DTD/svg11.dtd">
<svg version="1.1" id="Capa_1" xmlns="http://www.w3.org/2000/svg" xmlns:xlink="http://www.w3.org/1999/xlink" x="0px" y="0px"
	 width="72.42px" height="66.58px" viewBox="0 0 72.42 66.58" style="enable-background:new 0 0 72.42 66.58;" xml:space="preserve"
	>
<g id="_x32_1">
	<g>
		<path d="M67.618,27.125L45.901,16.749c-5.732-3.329-13.26-3.365-18.924-0.224l-22.175,10.6C0.812,29.031,0.08,31.731,0,33.317
			c0.073,1.167,0.687,4.094,4.8,6.061l22.111,10.59c2.838,1.572,6.063,2.402,9.327,2.402c3.391,0,6.731-0.9,9.576-2.558
			l21.806-10.434c4.114-1.969,4.729-4.896,4.802-6.208C72.34,31.731,71.606,29.031,67.618,27.125z M66.562,37.159L44.67,47.637
			c-5.024,2.916-11.46,3.002-16.635,0.144L5.859,37.156c-2.938-1.403-3.36-3.26-3.406-3.846c0.062-1.097,0.703-2.674,3.406-3.965
			L28.1,18.713c2.478-1.37,5.293-2.096,8.139-2.096c2.966,0,5.882,0.781,8.518,2.308l21.805,10.421
			c2.703,1.291,3.344,2.868,3.406,3.817C69.921,33.897,69.498,35.752,66.562,37.159z M42.955,21.759l-1.656-0.788
			c-0.039-0.021-0.204-0.108-0.247-0.125c-3.146-1.212-6.641-1.204-9.902,0.11l-1.446,0.695c-4.196,2.339-6.855,6.771-6.939,11.613
			c0.084,4.811,2.743,9.253,7.002,11.625l1.455,0.7c1.608,0.647,3.297,0.979,5.018,0.979c1.655,0,3.276-0.299,4.813-0.891
			c0.033-0.012,0.191-0.092,0.227-0.107l1.771-0.875c4.093-2.405,6.583-6.681,6.664-11.475
			C49.631,28.485,47.14,24.219,42.955,21.759z M41.886,42.529l-1.712,0.851c-2.559,0.981-5.525,0.938-7.96-0.037l-1.315-0.635
			c-3.433-1.916-5.608-5.552-5.677-9.442c0.068-3.924,2.244-7.549,5.608-9.429l1.308-0.627c1.304-0.524,2.684-0.791,4.101-0.791
			c1.355,0,2.679,0.245,3.752,0.637c0.031,0.021,0.188,0.106,0.219,0.12l1.596,0.755c3.348,1.972,5.385,5.462,5.451,9.292
			C47.188,37.108,45.151,40.604,41.886,42.529z"/>
	</g>
</g>
</svg>
