<?xml version="1.0" encoding="iso-8859-1"?>
<!-- Generator: Adobe Illustrator 16.0.4, SVG Export Plug-In . SVG Version: 6.00 Build 0)  -->
<!DOCTYPE svg PUBLIC "-//W3C//DTD SVG 1.1//EN" "http://www.w3.org/Graphics/SVG/1.1/DTD/svg11.dtd">
<svg version="1.1" id="Capa_1" xmlns="http://www.w3.org/2000/svg" xmlns:xlink="http://www.w3.org/1999/xlink" x="0px" y="0px"
	 width="53.623px" height="70.978px" viewBox="0 0 53.623 70.978" style="enable-background:new 0 0 53.623 70.978;"
	 xml:space="preserve">
<path d="M42.729,70.978H10.894C4.887,70.978,0,66.083,0,60.067V10.911C0,4.895,4.887,0,10.894,0h31.836
	c6.007,0,10.894,4.895,10.894,10.911v49.156C53.623,66.083,48.736,70.978,42.729,70.978z M10.894,2.462
	c-4.651,0-8.437,3.79-8.437,8.449v49.156c0,4.659,3.785,8.448,8.437,8.448h31.836c4.651,0,8.436-3.789,8.436-8.448V10.911
	c0-4.659-3.784-8.449-8.436-8.449H10.894z"/>
<circle cx="26.812" cy="62.018" r="1.229"/>
<path d="M26.812,64.479c-1.354,0-2.458-1.104-2.458-2.462c0-1.356,1.104-2.461,2.458-2.461s2.457,1.104,2.457,2.461
	C29.269,63.375,28.166,64.479,26.812,64.479z"/>
<line x1="24.354" y1="9.642" x2="29.269" y2="9.642"/>
<path d="M29.269,9.642h-4.915c-0.679,0-1.229-0.551-1.229-1.231c0-0.68,0.55-1.23,1.229-1.23h4.915c0.68,0,1.229,0.551,1.229,1.23
	C30.498,9.091,29.948,9.642,29.269,9.642z"/>
<g>
</g>
<g>
</g>
<g>
</g>
<g>
</g>
<g>
</g>
<g>
</g>
<g>
</g>
<g>
</g>
<g>
</g>
<g>
</g>
<g>
</g>
<g>
</g>
<g>
</g>
<g>
</g>
<g>
</g>
</svg>
