<?xml version="1.0" encoding="iso-8859-1"?>
<!-- Generator: Adobe Illustrator 16.0.4, SVG Export Plug-In . SVG Version: 6.00 Build 0)  -->
<!DOCTYPE svg PUBLIC "-//W3C//DTD SVG 1.1//EN" "http://www.w3.org/Graphics/SVG/1.1/DTD/svg11.dtd">
<svg version="1.1" id="Capa_1" xmlns="http://www.w3.org/2000/svg" xmlns:xlink="http://www.w3.org/1999/xlink" x="0px" y="0px"
	 width="41.779px" height="53.664px" viewBox="0 0 41.779 53.664" style="enable-background:new 0 0 41.779 53.664;"
	 xml:space="preserve">
<g id="_x36_">
	<g>
		<path d="M32.688,0H9.094C4.08,0,0,4.086,0,9.107v30.854c0,0.326,0.13,0.64,0.36,0.87l12.454,12.472
			c0.23,0.23,0.542,0.36,0.868,0.36h19.006c5.014,0,9.091-4.086,9.091-9.107V9.107C41.779,4.086,37.702,0,32.688,0z M13.073,50.083
			L3.15,40.146h4.863c2.695,0,5.06,2.01,5.06,4.3V50.083z M39.322,44.557c0,3.665-2.977,6.646-6.634,6.646H15.531v-6.757
			c0-3.665-3.442-6.762-7.518-6.762H2.458V9.107c0-3.664,2.977-6.646,6.636-6.646h23.595c3.657,0,6.634,2.981,6.634,6.646V44.557z
			 M30.355,14.524h-19.66c-0.68,0-1.229,0.55-1.229,1.23s0.55,1.23,1.229,1.23h19.66c0.68,0,1.229-0.55,1.229-1.23
			S31.035,14.524,30.355,14.524z M30.355,21.909h-19.66c-0.68,0-1.229,0.55-1.229,1.23s0.55,1.23,1.229,1.23h19.66
			c0.68,0,1.229-0.55,1.229-1.23S31.035,21.909,30.355,21.909z M30.355,29.294h-19.66c-0.68,0-1.229,0.551-1.229,1.23
			c0,0.681,0.55,1.231,1.229,1.231h19.66c0.68,0,1.229-0.551,1.229-1.231C31.584,29.845,31.035,29.294,30.355,29.294z"/>
	</g>
</g>
<g>
</g>
<g>
</g>
<g>
</g>
<g>
</g>
<g>
</g>
<g>
</g>
<g>
</g>
<g>
</g>
<g>
</g>
<g>
</g>
<g>
</g>
<g>
</g>
<g>
</g>
<g>
</g>
<g>
</g>
</svg>
