<?xml version="1.0" encoding="iso-8859-1"?>
<!-- Generator: Adobe Illustrator 16.0.4, SVG Export Plug-In . SVG Version: 6.00 Build 0)  -->
<!DOCTYPE svg PUBLIC "-//W3C//DTD SVG 1.1//EN" "http://www.w3.org/Graphics/SVG/1.1/DTD/svg11.dtd">
<svg version="1.1" id="Capa_1" xmlns="http://www.w3.org/2000/svg" xmlns:xlink="http://www.w3.org/1999/xlink" x="0px" y="0px"
	 width="45.724px" height="66.813px" viewBox="0 0 45.724 66.813" style="enable-background:new 0 0 45.724 66.813;"
	 xml:space="preserve">
<g id="_x39_">
	<g>
		<path d="M33.127,0h-20.53C5.65,0,0,5.66,0,12.618v41.576c0,6.959,5.65,12.619,12.597,12.619h20.53
			c6.946,0,12.597-5.66,12.597-12.619V12.618C45.724,5.66,40.073,0,33.127,0z M43.267,54.194c0,5.601-4.55,10.157-10.14,10.157
			h-20.53c-5.591,0-10.14-4.557-10.14-10.157V12.618c0-5.6,4.549-10.157,10.14-10.157h20.53c5.59,0,10.14,4.558,10.14,10.157V54.194
			z M22.861,56.243c-1.354,0-2.457,1.104-2.457,2.462c0,1.356,1.103,2.461,2.457,2.461c1.355,0,2.458-1.104,2.458-2.461
			C25.319,57.348,24.217,56.243,22.861,56.243z M25.319,6.328h-4.915c-0.68,0-1.229,0.551-1.229,1.23
			c0,0.681,0.549,1.231,1.229,1.231h4.915c0.679,0,1.229-0.551,1.229-1.231C26.548,6.879,25.998,6.328,25.319,6.328z"/>
	</g>
</g>
<g>
</g>
<g>
</g>
<g>
</g>
<g>
</g>
<g>
</g>
<g>
</g>
<g>
</g>
<g>
</g>
<g>
</g>
<g>
</g>
<g>
</g>
<g>
</g>
<g>
</g>
<g>
</g>
<g>
</g>
</svg>
