<?xml version="1.0" encoding="iso-8859-1"?>
<!-- Generator: Adobe Illustrator 16.0.4, SVG Export Plug-In . SVG Version: 6.00 Build 0)  -->
<!DOCTYPE svg PUBLIC "-//W3C//DTD SVG 1.1//EN" "http://www.w3.org/Graphics/SVG/1.1/DTD/svg11.dtd">
<svg version="1.1" id="Capa_1" xmlns="http://www.w3.org/2000/svg" xmlns:xlink="http://www.w3.org/1999/xlink" x="0px" y="0px"
	 width="73.728px" height="71.101px" viewBox="0 0 73.728 71.101" style="enable-background:new 0 0 73.728 71.101;"
	 xml:space="preserve">
<g id="_x32_3">
	<g>
		<path d="M73.633,39.466c0.062-0.151,0.095-0.312,0.095-0.472V24.226c0-0.681-0.549-1.231-1.229-1.231H62.407V1.231
			c0-0.681-0.55-1.231-1.229-1.231H12.55c-0.679,0-1.229,0.551-1.229,1.231v21.763H1.229C0.55,22.994,0,23.545,0,24.226v14.77
			c0,0.364,0.164,0.683,0.415,0.908l11.46,11.479c0.703,2.108,2.052,3.975,3.917,5.277l20.369,14.219
			c0.211,0.146,0.458,0.222,0.703,0.222c0.244,0,0.492-0.075,0.703-0.222L57.936,56.66c1.858-1.298,3.205-3.154,3.911-5.253
			l11.519-11.539C73.479,39.754,73.57,39.617,73.633,39.466z M62.407,40.227h7.125l-7.125,7.137V40.227z M13.778,2.462h46.171
			v20.532H13.778V2.462z M2.458,25.456h68.812v12.309H2.458V25.456z M11.321,40.227v7.12l-7.108-7.12H11.321z M56.529,54.641
			L36.864,68.369L17.198,54.641c-2.141-1.496-3.42-3.95-3.42-6.565v-7.849h46.171v7.849C59.949,50.69,58.67,53.145,56.529,54.641z"
			/>
	</g>
</g>
<g>
</g>
<g>
</g>
<g>
</g>
<g>
</g>
<g>
</g>
<g>
</g>
<g>
</g>
<g>
</g>
<g>
</g>
<g>
</g>
<g>
</g>
<g>
</g>
<g>
</g>
<g>
</g>
<g>
</g>
</svg>
