<?xml version="1.0" encoding="iso-8859-1"?>
<!-- Generator: Adobe Illustrator 16.0.4, SVG Export Plug-In . SVG Version: 6.00 Build 0)  -->
<!DOCTYPE svg PUBLIC "-//W3C//DTD SVG 1.1//EN" "http://www.w3.org/Graphics/SVG/1.1/DTD/svg11.dtd">
<svg version="1.1" id="Capa_1" xmlns="http://www.w3.org/2000/svg" xmlns:xlink="http://www.w3.org/1999/xlink" x="0px" y="0px"
	 width="53.697px" height="70.1px" viewBox="0 0 53.697 70.1" style="enable-background:new 0 0 53.697 70.1;" xml:space="preserve"
	>
<g id="_x32_2">
	<g>
		<path d="M39.564,19.232l-7.605,0.017l-2.331-7.253c-0.403-1.253-1.555-2.094-2.865-2.094c-1.312,0-2.465,0.841-2.865,2.091
			l-2.333,7.256l-7.61-0.017c-1.309,0-2.46,0.836-2.865,2.081c-0.403,1.25,0.038,2.606,1.102,3.373l6.165,4.459l-2.373,7.238
			c-0.406,1.253,0.033,2.608,1.092,3.376c1.032,0.759,2.503,0.762,3.549-0.003l6.14-4.492l6.142,4.495
			c0.521,0.38,1.135,0.579,1.773,0.579c0.644,0,1.258-0.199,1.769-0.574c1.066-0.774,1.505-2.133,1.095-3.383l-2.371-7.236
			l6.166-4.461c1.062-0.772,1.504-2.128,1.099-3.368C42.034,20.068,40.882,19.232,39.564,19.232z M39.896,22.688l-6.893,4.988
			c-0.432,0.312-0.614,0.873-0.449,1.383l2.652,8.092c0.074,0.229-0.005,0.479-0.204,0.622c-0.235,0.169-0.41,0.171-0.65-0.002
			l-6.864-5.024c-0.216-0.158-0.47-0.238-0.725-0.238c-0.254,0-0.509,0.08-0.725,0.238l-6.861,5.021
			c-0.166,0.118-0.355,0.222-0.658,0c-0.194-0.139-0.273-0.389-0.201-0.617l2.652-8.092c0.167-0.51-0.015-1.07-0.447-1.383
			l-6.893-4.985c-0.196-0.142-0.278-0.39-0.204-0.615c0.074-0.233,0.283-0.383,0.53-0.383l8.501,0.02h0.003
			c0.532,0,1.005-0.344,1.169-0.854l2.605-8.111c0.149-0.459,0.907-0.461,1.057,0.003l2.604,8.108
			c0.163,0.51,0.637,0.854,1.169,0.854h0.003l8.505-0.02c0.242,0,0.451,0.151,0.526,0.383C40.172,22.302,40.09,22.547,39.896,22.688
			z M26.849,0C12.044,0,0,12.063,0,26.894c0,9.89,5.328,18.861,13.959,23.593v18.383c0,0.469,0.267,0.899,0.688,1.106
			c0.415,0.204,0.919,0.155,1.294-0.133l11.011-8.546l11.025,8.546c0.219,0.171,0.485,0.257,0.752,0.257
			c0.185,0,0.369-0.041,0.54-0.124c0.422-0.207,0.688-0.638,0.688-1.106V50.363c8.493-4.765,13.739-13.688,13.739-23.47
			C53.697,12.063,41.654,0,26.849,0z M38.148,48.544c-0.346,0.183-0.579,0.523-0.639,0.908c-0.015,0.097-0.017,0.192-0.01,0.288
			v16.619l-9.797-7.595c-0.221-0.17-0.484-0.257-0.751-0.257s-0.53,0.087-0.753,0.257l-9.783,7.595V49.745
			c0-0.461-0.259-0.884-0.669-1.096C7.551,44.445,2.458,36.107,2.458,26.894c0-13.472,10.941-24.432,24.391-24.432
			c13.45,0,24.392,10.96,24.392,24.432C51.24,36.012,46.225,44.308,38.148,48.544z"/>
	</g>
</g>
<g>
</g>
<g>
</g>
<g>
</g>
<g>
</g>
<g>
</g>
<g>
</g>
<g>
</g>
<g>
</g>
<g>
</g>
<g>
</g>
<g>
</g>
<g>
</g>
<g>
</g>
<g>
</g>
<g>
</g>
</svg>
