<?xml version="1.0" encoding="iso-8859-1"?>
<!-- Generator: Adobe Illustrator 16.0.4, SVG Export Plug-In . SVG Version: 6.00 Build 0)  -->
<!DOCTYPE svg PUBLIC "-//W3C//DTD SVG 1.1//EN" "http://www.w3.org/Graphics/SVG/1.1/DTD/svg11.dtd">
<svg version="1.1" id="Capa_1" xmlns="http://www.w3.org/2000/svg" xmlns:xlink="http://www.w3.org/1999/xlink" x="0px" y="0px"
	 width="52.444px" height="50.912px" viewBox="0 0 52.444 50.912" style="enable-background:new 0 0 52.444 50.912;"
	 xml:space="preserve">
<g id="_x31_7">
	<g>
		<path d="M51.727,22.999c-0.789-1.049-2.133-1.627-3.784-1.627H37.714c-1.707,0-3.08-1.31-3.08-2.393
			c0-1.556,0.74-4.052,1.52-5.135c1.034-1.435,2.275-4.596,2.765-7.047c0.569-2.846-0.521-5.722-2.477-6.549
			c-1.946-0.823-4.802,0.462-6.482,2.861L19.86,17.589c-0.818,1.169-1.528,2.845-2.007,4.563c-0.52-0.295-1.111-0.477-1.749-0.477
			H3.586C1.608,21.676,0,23.286,0,25.267v14.695c0,1.979,1.608,3.59,3.586,3.59h12.519c0.718,0,1.384-0.218,1.944-0.583
			c0.648,1.672,1.625,3.252,2.764,4.283l0.668,0.541c1.927,1.749,5.57,3.119,8.291,3.119h10.095c2.949,0,5.885-2.17,6.68-4.932
			l5.692-19.327C52.637,25.267,52.454,23.968,51.727,22.999z M17.229,39.962c0,0.622-0.504,1.129-1.125,1.129H3.586
			c-0.622,0-1.128-0.507-1.128-1.129V25.267c0-0.623,0.506-1.129,1.128-1.129h12.519c0.621,0,1.125,0.506,1.125,1.129V39.962z
			 M49.879,25.965l-5.692,19.326c-0.492,1.712-2.47,3.159-4.32,3.159H29.771c-2.116,0-5.159-1.137-6.69-2.525l-0.667-0.541
			c-1.479-1.339-2.727-4.224-2.727-6.298V26.143c0-2.177,1.001-5.447,2.186-7.143l10.1-14.478c0.953-1.358,2.297-2.069,3.135-2.069
			c0.148,0,0.275,0.021,0.379,0.065c0.67,0.282,1.399,1.901,1.022,3.796c-0.418,2.088-1.515,4.933-2.348,6.089
			c-1.094,1.519-1.984,4.469-1.984,6.576c0,2.586,2.587,4.854,5.537,4.854h10.229c0.85,0,1.512,0.235,1.821,0.645
			C50.088,24.912,50.004,25.529,49.879,25.965z"/>
	</g>
</g>
<g>
</g>
<g>
</g>
<g>
</g>
<g>
</g>
<g>
</g>
<g>
</g>
<g>
</g>
<g>
</g>
<g>
</g>
<g>
</g>
<g>
</g>
<g>
</g>
<g>
</g>
<g>
</g>
<g>
</g>
</svg>
