<?xml version="1.0" encoding="iso-8859-1"?>
<!-- Generator: Adobe Illustrator 16.0.4, SVG Export Plug-In . SVG Version: 6.00 Build 0)  -->
<!DOCTYPE svg PUBLIC "-//W3C//DTD SVG 1.1//EN" "http://www.w3.org/Graphics/SVG/1.1/DTD/svg11.dtd">
<svg version="1.1" id="Capa_1" xmlns="http://www.w3.org/2000/svg" xmlns:xlink="http://www.w3.org/1999/xlink" x="0px" y="0px"
	 width="64.525px" height="63.328px" viewBox="0 0 64.525 63.328" style="enable-background:new 0 0 64.525 63.328;"
	 xml:space="preserve">
<g id="_x31_0">
	<g>
		<path d="M50.235,40.684C44.571,22.463,35.372,2.561,33.505,0.404c-0.465-0.539-1.392-0.539-1.857,0
			C29.843,2.491,20.642,21.923,14.78,39.78C5.564,48.685,0.731,55.938,0.009,61.95c-0.043,0.349,0.067,0.7,0.3,0.963
			c0.232,0.265,0.569,0.415,0.919,0.415h62.068c0.351,0,0.685-0.149,0.917-0.411c0.233-0.261,0.344-0.609,0.305-0.958
			C63.63,54.104,55.65,46.072,50.235,40.684z M2.694,60.866c1.227-5.196,5.931-11.754,14.011-19.523
			c0.145-0.141,0.255-0.314,0.317-0.506C22.191,24.999,29.745,8.615,32.574,3.514c2.839,5.185,10.399,21.995,15.405,38.191
			c0.061,0.192,0.166,0.367,0.308,0.509c4.841,4.816,11.997,11.938,13.55,18.652H2.694z M32.528,38.902
			c-4.459,0-8.088,3.634-8.088,8.1c0,4.465,3.629,8.099,8.088,8.099s8.086-3.634,8.086-8.099
			C40.614,42.536,36.987,38.902,32.528,38.902z M32.528,52.639c-3.105,0-5.63-2.528-5.63-5.637s2.524-5.638,5.63-5.638
			c3.104,0,5.628,2.529,5.628,5.638S35.632,52.639,32.528,52.639z M32.528,35.172c3.183,0,5.772-2.594,5.772-5.782
			c0-3.188-2.59-5.781-5.772-5.781s-5.771,2.594-5.771,5.781C26.757,32.578,29.346,35.172,32.528,35.172z M32.528,26.07
			c1.826,0,3.314,1.489,3.314,3.319c0,1.831-1.488,3.32-3.314,3.32s-3.314-1.489-3.314-3.32C29.214,27.56,30.702,26.07,32.528,26.07
			z"/>
	</g>
</g>
<g>
</g>
<g>
</g>
<g>
</g>
<g>
</g>
<g>
</g>
<g>
</g>
<g>
</g>
<g>
</g>
<g>
</g>
<g>
</g>
<g>
</g>
<g>
</g>
<g>
</g>
<g>
</g>
<g>
</g>
</svg>
