<?xml version="1.0" encoding="iso-8859-1"?>
<!-- Generator: Adobe Illustrator 16.0.4, SVG Export Plug-In . SVG Version: 6.00 Build 0)  -->
<!DOCTYPE svg PUBLIC "-//W3C//DTD SVG 1.1//EN" "http://www.w3.org/Graphics/SVG/1.1/DTD/svg11.dtd">
<svg version="1.1" id="Capa_1" xmlns="http://www.w3.org/2000/svg" xmlns:xlink="http://www.w3.org/1999/xlink" x="0px" y="0px"
	 width="53.909px" height="50.635px" viewBox="0 0 53.909 50.635" style="enable-background:new 0 0 53.909 50.635;"
	 xml:space="preserve">
<g id="_x32_4">
	<g>
		<path d="M53.226,42.223l-2.412-4.892c-1.68-3.411-5.865-5.483-9.13-5.768c-1.151-0.099-3.331-0.485-5.182-0.92
			c-1.487-0.349-2.35-0.623-2.829-0.801c0.117-0.431,0.333-0.863,0.66-1.312c3.682-2.895,5.875-7.727,5.875-12.958
			C40.208,6.985,34.28,0,26.996,0S13.784,6.985,13.784,15.572c0,5.233,2.193,10.063,5.873,12.96
			c0.323,0.433,0.547,0.875,0.667,1.327c-0.49,0.188-1.363,0.469-2.87,0.82c-2.074,0.482-4.174,0.867-5.232,0.956
			c-3.166,0.271-7.439,2.411-9.137,5.854l-2.404,5.022c-0.898,1.817-0.908,3.911-0.024,5.334c1.082,1.745,2.774,2.789,4.528,2.789
			h43.536c1.749,0,3.441-1.041,4.528-2.789C54.138,46.415,54.128,44.05,53.226,42.223z M51.161,46.546
			c-0.487,0.785-1.387,1.627-2.44,1.627H5.185c-1.056,0-1.953-0.839-2.44-1.625c-0.425-0.683-0.364-1.923,0.146-2.959l2.404-5.022
			c1.246-2.526,4.606-4.26,7.136-4.479c1.433-0.12,3.902-0.62,5.58-1.01c3.563-0.831,4.224-1.394,4.442-1.579
			c0.28-0.24,0.439-0.594,0.432-0.964c-0.028-1.286-0.492-2.508-1.365-3.616c-0.067-0.091-0.146-0.17-0.238-0.237
			c-3.155-2.424-5.04-6.575-5.04-11.109c0-7.229,4.824-13.11,10.755-13.11S37.75,8.344,37.75,15.572
			c0,4.532-1.884,8.684-5.04,11.102c-0.081,0.062-0.158,0.142-0.221,0.222c-0.888,1.12-1.351,2.339-1.38,3.622
			c-0.007,0.368,0.149,0.72,0.425,0.957c0.209,0.181,0.843,0.731,4.406,1.567c1.951,0.457,4.279,0.865,5.532,0.974
			c2.551,0.222,5.918,1.931,7.138,4.407l2.412,4.892C51.581,44.449,51.545,45.93,51.161,46.546z"/>
	</g>
</g>
<g>
</g>
<g>
</g>
<g>
</g>
<g>
</g>
<g>
</g>
<g>
</g>
<g>
</g>
<g>
</g>
<g>
</g>
<g>
</g>
<g>
</g>
<g>
</g>
<g>
</g>
<g>
</g>
<g>
</g>
</svg>
