<?xml version="1.0" encoding="iso-8859-1"?>
<!-- Generator: Adobe Illustrator 16.0.4, SVG Export Plug-In . SVG Version: 6.00 Build 0)  -->
<!DOCTYPE svg PUBLIC "-//W3C//DTD SVG 1.1//EN" "http://www.w3.org/Graphics/SVG/1.1/DTD/svg11.dtd">
<svg version="1.1" id="Capa_1" xmlns="http://www.w3.org/2000/svg" xmlns:xlink="http://www.w3.org/1999/xlink" x="0px" y="0px"
	 width="58.963px" height="58.357px" viewBox="0 0 58.963 58.357" style="enable-background:new 0 0 58.963 58.357;"
	 xml:space="preserve">
<g id="_x33_0">
	<g>
		<path d="M29.777,16.625c-7.433,0-13.481,6.058-13.481,13.502c0,7.445,6.049,13.504,13.481,13.504s13.48-6.059,13.48-13.504
			C43.258,22.683,37.21,16.625,29.777,16.625z M29.777,41.241c-6.118,0-11.096-4.986-11.096-11.114
			c0-6.127,4.978-11.113,11.096-11.113c6.117,0,11.095,4.986,11.095,11.113C40.872,36.255,35.895,41.241,29.777,41.241z
			 M58.601,28.553c-0.228-0.224-0.535-0.351-0.856-0.351h-0.017l-2.669,0.033c-0.154-3.036-0.843-5.99-2.057-8.811l2.436-1.188
			c0.29-0.142,0.511-0.395,0.617-0.699c0.105-0.308,0.086-0.645-0.056-0.936c-1.925-3.952-4.764-7.488-8.213-10.229
			c-0.254-0.202-0.58-0.293-0.897-0.258c-0.321,0.039-0.614,0.202-0.815,0.455l-1.678,2.12c-2.45-1.76-5.218-3.084-8.114-3.885
			l0.588-2.64c0.146-0.658-0.267-1.311-0.924-1.459c-4.261-0.96-8.849-0.942-13.104,0.041c-0.314,0.071-0.588,0.267-0.761,0.543
			c-0.17,0.274-0.226,0.605-0.153,0.921l0.607,2.64c-2.902,0.819-5.662,2.158-8.093,3.926l-1.689-2.104
			c-0.423-0.527-1.193-0.613-1.714-0.188c-3.43,2.756-6.247,6.311-8.15,10.28c-0.14,0.293-0.158,0.627-0.051,0.933
			c0.105,0.308,0.332,0.558,0.622,0.697l2.443,1.173c-1.19,2.808-1.86,5.745-2.002,8.786L1.217,28.36
			c-0.323,0-0.633,0.13-0.861,0.358C0.128,28.949,0,29.26,0,29.584c0.01,4.488,0.999,8.797,2.94,12.807
			c0.295,0.607,1.022,0.86,1.63,0.564l2.436-1.183c1.445,2.651,3.357,5.051,5.611,7.034l-1.68,2.112
			c-0.202,0.255-0.296,0.577-0.26,0.899s0.199,0.618,0.454,0.817c3.448,2.753,7.538,4.722,11.827,5.692
			c0.089,0.02,0.18,0.029,0.269,0.029c0.229,0,0.453-0.065,0.65-0.188c0.273-0.173,0.468-0.449,0.54-0.765l0.593-2.635
			c3.026,0.541,5.969,0.541,8.99-0.01l0.603,2.635c0.148,0.659,0.802,1.08,1.459,0.919c4.284-0.979,8.369-2.952,11.815-5.712
			c0.525-0.421,0.611-1.19,0.191-1.717l-1.685-2.11c2.249-1.988,4.157-4.393,5.597-7.049l2.44,1.181
			c0.293,0.14,0.624,0.158,0.935,0.053c0.305-0.108,0.554-0.332,0.695-0.623c1.933-4.015,2.911-8.324,2.911-12.914
			C58.963,29.097,58.834,28.783,58.601,28.553z M54.36,40.164l-2.391-1.156c-0.609-0.293-1.335-0.036-1.63,0.569
			c-1.507,3.13-3.725,5.924-6.41,8.075c-0.525,0.421-0.612,1.19-0.192,1.717l1.649,2.064c-2.616,1.904-5.58,3.34-8.684,4.2
			l-0.59-2.582c-0.072-0.317-0.267-0.591-0.54-0.762c-0.271-0.176-0.612-0.233-0.92-0.156c-3.47,0.795-6.83,0.795-10.3,0.009
			c-0.319-0.069-0.648-0.012-0.92,0.159c-0.273,0.173-0.468,0.449-0.54,0.765l-0.58,2.582c-3.108-0.856-6.075-2.284-8.693-4.184
			l1.645-2.067c0.201-0.255,0.295-0.576,0.259-0.898s-0.199-0.618-0.454-0.817c-2.692-2.149-4.915-4.936-6.427-8.061
			c-0.142-0.294-0.392-0.518-0.696-0.623c-0.305-0.108-0.643-0.086-0.934,0.056l-2.385,1.158c-1.287-2.985-2.009-6.142-2.16-9.411
			l2.628-0.005c0.672,0,1.214-0.599,1.214-1.271c0-3.464,0.771-6.832,2.292-10.011c0.291-0.608,0.036-1.339-0.57-1.63l-2.394-1.148
			c1.529-2.845,3.574-5.424,5.993-7.559l1.653,2.061c0.42,0.526,1.188,0.605,1.714,0.188c2.688-2.164,5.892-3.717,9.267-4.495
			c0.314-0.072,0.588-0.268,0.761-0.544c0.17-0.273,0.226-0.605,0.153-0.921l-0.596-2.581c3.154-0.577,6.476-0.59,9.634-0.031
			l-0.576,2.581c-0.146,0.659,0.267,1.311,0.925,1.46c3.412,0.767,6.537,2.265,9.287,4.447c0.528,0.418,1.297,0.334,1.714-0.197
			l1.642-2.074c2.436,2.122,4.495,4.688,6.038,7.519l-2.386,1.164c-0.604,0.296-0.856,1.026-0.562,1.633
			c1.553,3.192,2.343,6.586,2.353,10.092c0,0.326,0.132,0.639,0.365,0.867c0.228,0.227,0.534,0.352,0.854,0.352h0.018l2.613-0.034
			C56.369,33.962,55.649,37.147,54.36,40.164z"/>
	</g>
</g>
<g>
</g>
<g>
</g>
<g>
</g>
<g>
</g>
<g>
</g>
<g>
</g>
<g>
</g>
<g>
</g>
<g>
</g>
<g>
</g>
<g>
</g>
<g>
</g>
<g>
</g>
<g>
</g>
<g>
</g>
</svg>
